<svg width="500" height="700" viewBox="0 0 500 700" fill="none" xmlns="http://www.w3.org/2000/svg">
<path fill-rule="evenodd" clip-rule="evenodd" d="M59.5238 33.871C46.3742 33.871 35.7143 43.9807 35.7143 56.4516V643.548C35.7143 656.019 46.3742 666.129 59.5238 666.129H440.476C453.626 666.129 464.286 656.019 464.286 643.548V56.4516C464.286 43.9807 453.626 33.871 440.476 33.871H59.5238ZM64.6259 38.9698C51.4763 38.9698 40.8164 49.0796 40.8164 61.5505V638.449C40.8164 650.92 51.4763 661.03 64.6259 661.03H435.374C448.524 661.03 459.184 650.92 459.184 638.449V61.5505C459.184 49.0795 448.524 38.9698 435.374 38.9698H64.6259Z" fill="#FF2C2C"/>
<path d="M42.3173 52.2459C41.5357 54.0144 40.9846 55.8973 40.6997 57.8607L460.119 476.906V469.675L42.3173 52.2459Z" fill="#FF2C2C"/>
<path d="M52.9032 41.1297L460.119 447.983V440.752L58.1525 39.1434C56.3048 39.6092 54.5455 40.2804 52.9032 41.1297Z" fill="#FF2C2C"/>
<path d="M79.1075 38.3871L460.119 419.059V411.828L86.3449 38.3871H79.1075Z" fill="#FF2C2C"/>
<path d="M108.058 38.3871L460.119 390.135V382.904L115.295 38.3871H108.058Z" fill="#FF2C2C"/>
<path d="M137.007 38.3871L460.119 361.211V353.98L144.244 38.3871H137.007Z" fill="#FF2C2C"/>
<path d="M165.956 38.3871L460.119 332.288V325.057L173.194 38.3871H165.956Z" fill="#FF2C2C"/>
<path d="M194.906 38.3871L460.119 303.364V296.133L202.143 38.3871H194.906Z" fill="#FF2C2C"/>
<path d="M223.855 38.3871L460.119 274.44V267.21L231.092 38.3871H223.855Z" fill="#FF2C2C"/>
<path d="M252.805 38.3871L460.119 245.516V238.285L260.042 38.3871H252.805Z" fill="#FF2C2C"/>
<path d="M281.754 38.3871L460.119 216.593V209.362L288.992 38.3871H281.754Z" fill="#FF2C2C"/>
<path d="M310.704 38.3871L460.119 187.669V180.438L317.941 38.3871H310.704Z" fill="#FF2C2C"/>
<path d="M339.653 38.3871L460.119 158.746V151.515L346.891 38.3871H339.653Z" fill="#FF2C2C"/>
<path d="M368.603 38.3871L460.119 129.822V122.591L375.84 38.3871H368.603Z" fill="#FF2C2C"/>
<path d="M397.552 38.3871L460.119 100.898V93.6673L404.789 38.3871H397.552Z" fill="#FF2C2C"/>
<path d="M426.502 38.3871L460.119 71.9744V64.7435L433.739 38.3871H426.502Z" fill="#FF2C2C"/>
<path d="M460.119 498.599L40.4762 79.3301V86.561L460.119 505.83V498.599Z" fill="#FF2C2C"/>
<path d="M460.119 527.523L40.4762 108.254V115.485L460.119 534.753V527.523Z" fill="#FF2C2C"/>
<path d="M460.119 556.447L40.4762 137.178V144.409L460.119 563.678V556.447Z" fill="#FF2C2C"/>
<path d="M460.119 585.37L40.4762 166.101V173.332L460.119 592.601V585.37Z" fill="#FF2C2C"/>
<path d="M460.119 614.294L40.4762 195.025V202.256L460.119 621.525V614.294Z" fill="#FF2C2C"/>
<path d="M459.857 642.956L40.4762 223.949V231.179L458.188 648.519C458.983 646.768 459.551 644.903 459.857 642.956Z" fill="#FF2C2C"/>
<path d="M447.5 659.533L40.4762 252.872V260.103L442.21 661.479C444.07 661.029 445.843 660.371 447.5 659.533Z" fill="#FF2C2C"/>
<path d="M421.197 662.177L40.4762 281.796V289.027L413.96 662.177H421.197Z" fill="#FF2C2C"/>
<path d="M392.247 662.177L40.4762 310.72V317.951L385.01 662.177H392.247Z" fill="#FF2C2C"/>
<path d="M363.298 662.177L40.4762 339.644V346.874L356.06 662.177H363.298Z" fill="#FF2C2C"/>
<path d="M334.348 662.177L40.4762 368.567V375.798L327.111 662.177H334.348Z" fill="#FF2C2C"/>
<path d="M305.399 662.177L40.4762 397.491V404.722L298.162 662.177H305.399Z" fill="#FF2C2C"/>
<path d="M276.45 662.177L40.4762 426.414V433.645L269.212 662.177H276.45Z" fill="#FF2C2C"/>
<path d="M247.5 662.177L40.4762 455.338V462.569L240.262 662.177H247.5Z" fill="#FF2C2C"/>
<path d="M218.55 662.177L40.4762 484.262V491.493L211.313 662.177H218.55Z" fill="#FF2C2C"/>
<path d="M189.601 662.177L40.4762 513.186V520.417L182.363 662.177H189.601Z" fill="#FF2C2C"/>
<path d="M160.651 662.177L40.4762 542.109V549.34L153.414 662.177H160.651Z" fill="#FF2C2C"/>
<path d="M131.702 662.177L40.4762 571.033V578.264L124.465 662.177H131.702Z" fill="#FF2C2C"/>
<path d="M102.752 662.177L40.4762 599.957V607.188L95.5148 662.177H102.752Z" fill="#FF2C2C"/>
<path d="M73.8027 662.177L40.4762 628.881V636.111L66.5654 662.177H73.8027Z" fill="#FF2C2C"/>
<path d="M458.278 52.2459C459.06 54.0144 459.611 55.8973 459.896 57.8607L40.4762 476.906V469.675L458.278 52.2459Z" fill="#FF2C2C"/>
<path d="M447.692 41.1297L40.4762 447.983V440.752L442.443 39.1434C444.29 39.6092 446.05 40.2804 447.692 41.1297Z" fill="#FF2C2C"/>
<path d="M421.488 38.3871L40.4762 419.059V411.828L414.25 38.3871H421.488Z" fill="#FF2C2C"/>
<path d="M392.538 38.3871L40.4762 390.135V382.904L385.3 38.3871H392.538Z" fill="#FF2C2C"/>
<path d="M363.588 38.3871L40.4762 361.211V353.98L356.351 38.3871H363.588Z" fill="#FF2C2C"/>
<path d="M334.639 38.3871L40.4762 332.288V325.057L327.402 38.3871H334.639Z" fill="#FF2C2C"/>
<path d="M305.69 38.3871L40.4762 303.364V296.133L298.452 38.3871H305.69Z" fill="#FF2C2C"/>
<path d="M276.74 38.3871L40.4762 274.44V267.21L269.503 38.3871H276.74Z" fill="#FF2C2C"/>
<path d="M247.79 38.3871L40.4762 245.516V238.285L240.553 38.3871H247.79Z" fill="#FF2C2C"/>
<path d="M218.841 38.3871L40.4762 216.593V209.362L211.603 38.3871H218.841Z" fill="#FF2C2C"/>
<path d="M189.891 38.3871L40.4762 187.669V180.438L182.654 38.3871H189.891Z" fill="#FF2C2C"/>
<path d="M160.942 38.3871L40.4762 158.746V151.515L153.705 38.3871H160.942Z" fill="#FF2C2C"/>
<path d="M131.993 38.3871L40.4762 129.822V122.591L124.755 38.3871H131.993Z" fill="#FF2C2C"/>
<path d="M103.043 38.3871L40.4762 100.898V93.6673L95.8058 38.3871H103.043Z" fill="#FF2C2C"/>
<path d="M74.0934 38.3871L40.4762 71.9744V64.7435L66.8561 38.3871H74.0934Z" fill="#FF2C2C"/>
<path d="M40.4762 498.599L460.119 79.3301V86.561L40.4762 505.83V498.599Z" fill="#FF2C2C"/>
<path d="M40.4762 527.523L460.119 108.254V115.485L40.4762 534.753V527.523Z" fill="#FF2C2C"/>
<path d="M40.4762 556.447L460.119 137.178V144.409L40.4762 563.678V556.447Z" fill="#FF2C2C"/>
<path d="M40.4762 585.37L460.119 166.101V173.332L40.4762 592.601V585.37Z" fill="#FF2C2C"/>
<path d="M40.4762 614.294L460.119 195.025V202.256L40.4762 621.525V614.294Z" fill="#FF2C2C"/>
<path d="M40.7379 642.956L460.119 223.949V231.179L42.4071 648.519C41.6121 646.768 41.044 644.903 40.7379 642.956Z" fill="#FF2C2C"/>
<path d="M53.0954 659.533L460.119 252.872V260.103L58.3854 661.479C56.5248 661.029 54.7518 660.371 53.0954 659.533Z" fill="#FF2C2C"/>
<path d="M79.3982 662.177L460.119 281.796V289.027L86.6355 662.177H79.3982Z" fill="#FF2C2C"/>
<path d="M108.348 662.177L460.119 310.72V317.951L115.585 662.177H108.348Z" fill="#FF2C2C"/>
<path d="M137.297 662.177L460.119 339.644V346.874L144.535 662.177H137.297Z" fill="#FF2C2C"/>
<path d="M166.247 662.177L460.119 368.567V375.798L173.484 662.177H166.247Z" fill="#FF2C2C"/>
<path d="M195.196 662.177L460.119 397.491V404.722L202.434 662.177H195.196Z" fill="#FF2C2C"/>
<path d="M224.146 662.177L460.119 426.414V433.645L231.383 662.177H224.146Z" fill="#FF2C2C"/>
<path d="M253.096 662.177L460.119 455.338V462.569L260.333 662.177H253.096Z" fill="#FF2C2C"/>
<path d="M282.045 662.177L460.119 484.262V491.493L289.282 662.177H282.045Z" fill="#FF2C2C"/>
<path d="M310.994 662.177L460.119 513.186V520.417L318.232 662.177H310.994Z" fill="#FF2C2C"/>
<path d="M339.944 662.177L460.119 542.109V549.34L347.181 662.177H339.944Z" fill="#FF2C2C"/>
<path d="M368.893 662.177L460.119 571.033V578.264L376.131 662.177H368.893Z" fill="#FF2C2C"/>
<path d="M397.843 662.177L460.119 599.957V607.188L405.08 662.177H397.843Z" fill="#FF2C2C"/>
<path d="M426.793 662.177L460.119 628.881V636.111L434.03 662.177H426.793Z" fill="#FF2C2C"/>
<path d="M460.119 61.3107L40.4762 459.295V462.488L460.119 64.5041V61.3107Z" fill="#FF2C2C"/>
<path d="M460.119 77.2776L40.4762 475.261V478.455L460.119 80.471V77.2776Z" fill="#FF2C2C"/>
<path d="M460.119 93.2446L40.4762 491.228V494.422L460.119 96.438V93.2446Z" fill="#FF2C2C"/>
<path d="M460.119 109.212L40.4762 507.196V510.389L460.119 112.405V109.212Z" fill="#FF2C2C"/>
<path d="M460.119 125.179L40.4762 523.163V526.356L460.119 128.372V125.179Z" fill="#FF2C2C"/>
<path d="M460.119 141.146L40.4762 539.129V542.323L460.119 144.339V141.146Z" fill="#FF2C2C"/>
<path d="M460.119 157.112L40.4762 555.096V558.29L460.119 160.306V157.112Z" fill="#FF2C2C"/>
<path d="M460.119 173.079L40.4762 571.063V574.257L460.119 176.273V173.079Z" fill="#FF2C2C"/>
<path d="M460.119 189.046L40.4762 587.03V590.224L460.119 192.24V189.046Z" fill="#FF2C2C"/>
<path d="M460.119 205.013L40.4762 602.997V606.19L460.119 208.207V205.013Z" fill="#FF2C2C"/>
<path d="M460.119 220.98L40.4762 618.964V622.157L460.119 224.173V220.98Z" fill="#FF2C2C"/>
<path d="M460.119 236.947L40.4762 634.931V638.124L460.119 240.14V236.947Z" fill="#FF2C2C"/>
<path d="M460.119 252.914L42.5839 648.899C42.9287 649.621 43.3124 650.323 43.7326 651.003L460.119 256.107V252.914Z" fill="#FF2C2C"/>
<path d="M460.119 268.881L50.1025 657.736C50.7513 658.193 51.4255 658.619 52.1228 659.013L460.119 272.074V268.881Z" fill="#FF2C2C"/>
<path d="M460.119 284.848L62.3335 662.103C62.9774 662.152 63.6284 662.177 64.2857 662.177H65.6218L460.119 288.041V284.848Z" fill="#FF2C2C"/>
<path d="M460.119 300.815L79.0905 662.177H82.4576L460.119 304.008V300.815Z" fill="#FF2C2C"/>
<path d="M460.119 316.782L95.9263 662.177H99.2934L460.119 319.975V316.782Z" fill="#FF2C2C"/>
<path d="M460.119 332.749L112.762 662.177H116.129L460.119 335.942V332.749Z" fill="#FF2C2C"/>
<path d="M460.119 348.716L129.598 662.177H132.965L460.119 351.909V348.716Z" fill="#FF2C2C"/>
<path d="M460.119 364.682L146.434 662.177H149.801L460.119 367.876V364.682Z" fill="#FF2C2C"/>
<path d="M460.119 380.649L163.27 662.177H166.637L460.119 383.843V380.649Z" fill="#FF2C2C"/>
<path d="M460.119 396.616L180.106 662.177H183.473L460.119 399.81V396.616Z" fill="#FF2C2C"/>
<path d="M460.119 412.583L196.941 662.177H200.308L460.119 415.776V412.583Z" fill="#FF2C2C"/>
<path d="M460.119 428.55L213.777 662.177H217.144L460.119 431.743V428.55Z" fill="#FF2C2C"/>
<path d="M460.119 444.517L230.613 662.177H233.981L460.119 447.711V444.517Z" fill="#FF2C2C"/>
<path d="M460.119 460.484L247.449 662.177H250.816L460.119 463.678V460.484Z" fill="#FF2C2C"/>
<path d="M460.119 476.451L264.285 662.177H267.652L460.119 479.644V476.451Z" fill="#FF2C2C"/>
<path d="M460.119 492.418L281.121 662.177H284.488L460.119 495.611V492.418Z" fill="#FF2C2C"/>
<path d="M460.119 508.385L297.957 662.177H301.324L460.119 511.578V508.385Z" fill="#FF2C2C"/>
<path d="M460.119 524.352L314.793 662.177H318.16L460.119 527.545V524.352Z" fill="#FF2C2C"/>
<path d="M460.119 540.319L331.628 662.177H334.996L460.119 543.512V540.319Z" fill="#FF2C2C"/>
<path d="M460.119 556.286L348.464 662.177H351.832L460.119 559.479V556.286Z" fill="#FF2C2C"/>
<path d="M460.119 572.253L365.3 662.177H368.667L460.119 575.446V572.253Z" fill="#FF2C2C"/>
<path d="M460.119 588.219L382.136 662.177H385.503L460.119 591.413V588.219Z" fill="#FF2C2C"/>
<path d="M460.119 604.186L398.972 662.177H402.339L460.119 607.38V604.186Z" fill="#FF2C2C"/>
<path d="M460.119 620.153L415.808 662.177H419.175L460.119 623.347V620.153Z" fill="#FF2C2C"/>
<path d="M460.119 636.12L432.644 662.177H436.011L460.119 639.314V636.12Z" fill="#FF2C2C"/>
<path d="M40.4762 446.521L457.627 50.9002C457.258 50.1988 456.852 49.5181 456.411 48.8606L40.4762 443.328V446.521Z" fill="#FF2C2C"/>
<path d="M40.4762 430.554L449.799 42.358C449.128 41.9199 448.432 41.5136 447.714 41.1413L40.4762 427.361V430.554Z" fill="#FF2C2C"/>
<path d="M40.4762 414.587L437.136 38.4004C436.862 38.3916 436.586 38.3871 436.31 38.3871H433.783L40.4762 411.394V414.587Z" fill="#FF2C2C"/>
<path d="M40.4762 398.62L420.314 38.3871H416.947L40.4762 395.427V398.62Z" fill="#FF2C2C"/>
<path d="M40.4762 382.653L403.478 38.3871H400.111L40.4762 379.46V382.653Z" fill="#FF2C2C"/>
<path d="M40.4762 366.687L386.642 38.3871H383.275L40.4762 363.493V366.687Z" fill="#FF2C2C"/>
<path d="M40.4762 350.72L369.806 38.3871H366.439L40.4762 347.526V350.72Z" fill="#FF2C2C"/>
<path d="M40.4762 334.753L352.971 38.3871H349.603L40.4762 331.559V334.753Z" fill="#FF2C2C"/>
<path d="M40.4762 318.786L336.135 38.3871H332.767L40.4762 315.592V318.786Z" fill="#FF2C2C"/>
<path d="M40.4762 302.819L319.299 38.3871H315.931L40.4762 299.625V302.819Z" fill="#FF2C2C"/>
<path d="M40.4762 286.852L302.463 38.3871H299.096L40.4762 283.658V286.852Z" fill="#FF2C2C"/>
<path d="M40.4762 270.885L285.627 38.3871H282.26L40.4762 267.692V270.885Z" fill="#FF2C2C"/>
<path d="M40.4762 254.918L268.791 38.3871H265.424L40.4762 251.725V254.918Z" fill="#FF2C2C"/>
<path d="M40.4762 238.951L251.955 38.3871H248.588L40.4762 235.758V238.951Z" fill="#FF2C2C"/>
<path d="M40.4762 222.984L235.119 38.3871H231.752L40.4762 219.791V222.984Z" fill="#FF2C2C"/>
<path d="M40.4762 207.017L218.284 38.3871H214.916L40.4762 203.824V207.017Z" fill="#FF2C2C"/>
<path d="M40.4762 191.05L201.448 38.3871H198.081L40.4762 187.857V191.05Z" fill="#FF2C2C"/>
<path d="M40.4762 175.084L184.612 38.3871H181.245L40.4762 171.89V175.084Z" fill="#FF2C2C"/>
<path d="M40.4762 159.117L167.776 38.3871H164.409L40.4762 155.923V159.117Z" fill="#FF2C2C"/>
<path d="M40.4762 143.149L150.94 38.3871H147.573L40.4762 139.956V143.149Z" fill="#FF2C2C"/>
<path d="M40.4762 127.182L134.104 38.3871H130.737L40.4762 123.989V127.182Z" fill="#FF2C2C"/>
<path d="M40.4762 111.216L117.268 38.3871H113.901L40.4762 108.022V111.216Z" fill="#FF2C2C"/>
<path d="M40.4762 95.2487L100.432 38.3871H97.0652L40.4762 92.0553V95.2487Z" fill="#FF2C2C"/>
<path d="M40.4762 79.2819L83.5965 38.3871H80.2293L40.4762 76.0885V79.2819Z" fill="#FF2C2C"/>
<path d="M40.4762 63.315L66.7607 38.3871H64.2857C63.9813 38.3871 63.6782 38.3925 63.3765 38.4033L40.4932 60.1054C40.4819 60.3915 40.4762 60.679 40.4762 60.9677V63.315Z" fill="#FF2C2C"/>
<path d="M40.4762 61.3107L460.119 459.295V462.488L40.4762 64.5041V61.3107Z" fill="#FF2C2C"/>
<path d="M40.4762 77.2776L460.119 475.261V478.455L40.4762 80.471V77.2776Z" fill="#FF2C2C"/>
<path d="M40.4762 93.2446L460.119 491.228V494.422L40.4762 96.438V93.2446Z" fill="#FF2C2C"/>
<path d="M40.4762 109.212L460.119 507.196V510.389L40.4762 112.405V109.212Z" fill="#FF2C2C"/>
<path d="M40.4762 125.179L460.119 523.163V526.356L40.4762 128.372V125.179Z" fill="#FF2C2C"/>
<path d="M40.4762 141.146L460.119 539.129V542.323L40.4762 144.339V141.146Z" fill="#FF2C2C"/>
<path d="M40.4762 157.112L460.119 555.096V558.29L40.4762 160.306V157.112Z" fill="#FF2C2C"/>
<path d="M40.4762 173.079L460.119 571.063V574.257L40.4762 176.273V173.079Z" fill="#FF2C2C"/>
<path d="M40.4762 189.046L460.119 587.03V590.224L40.4762 192.24V189.046Z" fill="#FF2C2C"/>
<path d="M40.4762 205.013L460.119 602.997V606.19L40.4762 208.207V205.013Z" fill="#FF2C2C"/>
<path d="M40.4762 220.98L460.119 618.964V622.157L40.4762 224.173V220.98Z" fill="#FF2C2C"/>
<path d="M40.4762 236.947L460.119 634.931V638.124L40.4762 240.14V236.947Z" fill="#FF2C2C"/>
<path d="M40.4762 252.914L458.011 648.899C457.667 649.621 457.283 650.323 456.863 651.003L40.4762 256.107V252.914Z" fill="#FF2C2C"/>
<path d="M40.4762 268.881L450.493 657.736C449.844 658.193 449.17 658.619 448.472 659.013L40.4762 272.074V268.881Z" fill="#FF2C2C"/>
<path d="M40.4762 284.848L438.262 662.103C437.618 662.152 436.967 662.177 436.31 662.177H434.973L40.4762 288.041V284.848Z" fill="#FF2C2C"/>
<path d="M40.4762 300.815L421.505 662.177H418.138L40.4762 304.008V300.815Z" fill="#FF2C2C"/>
<path d="M40.4762 316.782L404.669 662.177H401.302L40.4762 319.975V316.782Z" fill="#FF2C2C"/>
<path d="M40.4762 332.749L387.833 662.177H384.466L40.4762 335.942V332.749Z" fill="#FF2C2C"/>
<path d="M40.4762 348.716L370.997 662.177H367.63L40.4762 351.909V348.716Z" fill="#FF2C2C"/>
<path d="M40.4762 364.682L354.161 662.177H350.794L40.4762 367.876V364.682Z" fill="#FF2C2C"/>
<path d="M40.4762 380.649L337.326 662.177H333.958L40.4762 383.843V380.649Z" fill="#FF2C2C"/>
<path d="M40.4762 396.616L320.49 662.177H317.123L40.4762 399.81V396.616Z" fill="#FF2C2C"/>
<path d="M40.4762 412.583L303.654 662.177H300.287L40.4762 415.776V412.583Z" fill="#FF2C2C"/>
<path d="M40.4762 428.55L286.818 662.177H283.451L40.4762 431.743V428.55Z" fill="#FF2C2C"/>
<path d="M40.4762 444.517L269.982 662.177H266.615L40.4762 447.711V444.517Z" fill="#FF2C2C"/>
<path d="M40.4762 460.484L253.146 662.177H249.779L40.4762 463.678V460.484Z" fill="#FF2C2C"/>
<path d="M40.4762 476.451L236.31 662.177H232.943L40.4762 479.644V476.451Z" fill="#FF2C2C"/>
<path d="M40.4762 492.418L219.474 662.177H216.107L40.4762 495.611V492.418Z" fill="#FF2C2C"/>
<path d="M40.4762 508.385L202.639 662.177H199.271L40.4762 511.578V508.385Z" fill="#FF2C2C"/>
<path d="M40.4762 524.352L185.803 662.177H182.436L40.4762 527.545V524.352Z" fill="#FF2C2C"/>
<path d="M40.4762 540.319L168.967 662.177H165.6L40.4762 543.512V540.319Z" fill="#FF2C2C"/>
<path d="M40.4762 556.286L152.131 662.177H148.764L40.4762 559.479V556.286Z" fill="#FF2C2C"/>
<path d="M40.4762 572.253L135.295 662.177H131.928L40.4762 575.446V572.253Z" fill="#FF2C2C"/>
<path d="M40.4762 588.219L118.459 662.177H115.092L40.4762 591.413V588.219Z" fill="#FF2C2C"/>
<path d="M40.4762 604.186L101.623 662.177H98.2561L40.4762 607.38V604.186Z" fill="#FF2C2C"/>
<path d="M40.4762 620.153L84.7872 662.177H81.42L40.4762 623.347V620.153Z" fill="#FF2C2C"/>
<path d="M40.4762 636.12L67.9513 662.177H64.5842L40.4762 639.314V636.12Z" fill="#FF2C2C"/>
<path d="M460.119 446.521L42.9678 50.9002C43.3368 50.1988 43.7431 49.5181 44.1843 48.8606L460.119 443.328V446.521Z" fill="#FF2C2C"/>
<path d="M460.119 430.554L50.7965 42.358C51.4673 41.9199 52.1628 41.5136 52.8808 41.1413L460.119 427.361V430.554Z" fill="#FF2C2C"/>
<path d="M460.119 414.587L63.4594 38.4004C63.7337 38.3916 64.0091 38.3871 64.2857 38.3871H66.8125L460.119 411.394V414.587Z" fill="#FF2C2C"/>
<path d="M460.119 398.62L80.2811 38.3871H83.6483L460.119 395.427V398.62Z" fill="#FF2C2C"/>
<path d="M460.119 382.653L97.1171 38.3871H100.484L460.119 379.46V382.653Z" fill="#FF2C2C"/>
<path d="M460.119 366.687L113.953 38.3871H117.32L460.119 363.493V366.687Z" fill="#FF2C2C"/>
<path d="M460.119 350.72L130.789 38.3871H134.156L460.119 347.526V350.72Z" fill="#FF2C2C"/>
<path d="M460.119 334.753L147.625 38.3871H150.992L460.119 331.559V334.753Z" fill="#FF2C2C"/>
<path d="M460.119 318.786L164.461 38.3871H167.828L460.119 315.592V318.786Z" fill="#FF2C2C"/>
<path d="M460.119 302.819L181.297 38.3871H184.664L460.119 299.625V302.819Z" fill="#FF2C2C"/>
<path d="M460.119 286.852L198.132 38.3871H201.5L460.119 283.658V286.852Z" fill="#FF2C2C"/>
<path d="M460.119 270.885L214.968 38.3871H218.335L460.119 267.692V270.885Z" fill="#FF2C2C"/>
<path d="M460.119 254.918L231.804 38.3871H235.171L460.119 251.725V254.918Z" fill="#FF2C2C"/>
<path d="M460.119 238.951L248.64 38.3871H252.007L460.119 235.758V238.951Z" fill="#FF2C2C"/>
<path d="M460.119 222.984L265.476 38.3871H268.843L460.119 219.791V222.984Z" fill="#FF2C2C"/>
<path d="M460.119 207.017L282.312 38.3871H285.679L460.119 203.824V207.017Z" fill="#FF2C2C"/>
<path d="M460.119 191.05L299.148 38.3871H302.515L460.119 187.857V191.05Z" fill="#FF2C2C"/>
<path d="M460.119 175.084L315.983 38.3871H319.351L460.119 171.89V175.084Z" fill="#FF2C2C"/>
<path d="M460.119 159.117L332.819 38.3871H336.186L460.119 155.923V159.117Z" fill="#FF2C2C"/>
<path d="M460.119 143.149L349.655 38.3871H353.022L460.119 139.956V143.149Z" fill="#FF2C2C"/>
<path d="M460.119 127.182L366.491 38.3871H369.858L460.119 123.989V127.182Z" fill="#FF2C2C"/>
<path d="M460.119 111.216L383.327 38.3871H386.694L460.119 108.022V111.216Z" fill="#FF2C2C"/>
<path d="M460.119 95.2487L400.163 38.3871H403.53L460.119 92.0553V95.2487Z" fill="#FF2C2C"/>
<path d="M460.119 79.2819L416.999 38.3871H420.366L460.119 76.0885V79.2819Z" fill="#FF2C2C"/>
<path d="M460.119 63.315L433.835 38.3871H436.31C436.614 38.3871 436.917 38.3925 437.219 38.4033L460.102 60.1054C460.113 60.3915 460.119 60.679 460.119 60.9677V63.315Z" fill="#FF2C2C"/>
</svg>
