<svg width="250" height="250" viewBox="0 0 250 250" fill="none" xmlns="http://www.w3.org/2000/svg">
<circle cx="187.5" cy="139.5" r="62.5" fill="#0E0E0E"/>
<circle cx="124.5" cy="62.5" r="62.5" fill="#0E0E0E"/>
<circle cx="62.5" cy="139.5" r="62.5" fill="#0E0E0E"/>
<path d="M98.1929 250C95.9295 250 94.399 247.798 95.2283 245.796C106.125 219.48 113.105 179.002 113.105 133.605C113.105 130.064 113.063 126.553 112.979 123.077C112.939 121.392 114.359 120 116.131 120L133.869 120C135.641 120 137.061 121.392 137.021 123.077C136.937 126.553 136.895 130.064 136.895 133.605C136.895 179.002 143.875 219.48 154.772 245.796C155.601 247.798 154.07 250 151.807 250H98.1929Z" fill="#0E0E0E"/>
<rect x="106" y="88" width="49" height="59" fill="#0E0E0E"/>
</svg>
