<svg width="250" height="250" viewBox="0 0 250 250" fill="none" xmlns="http://www.w3.org/2000/svg">
<path d="M25 125L25.02 124.975C25.0302 124.983 25.0405 124.992 25.0509 125C25.0405 125.008 25.0302 125.017 25.02 125.025L25 125Z" fill="#FF2C2C"/>
<path d="M81.8 179C58.4231 149.779 36.5471 128.049 28.0386 125C36.5471 121.951 58.4231 100.221 81.8 71C104.454 42.6821 121.48 16.1262 124.731 4.83192C127.608 15.8265 144.804 42.7555 167.8 71.5C190.165 99.4564 211.156 120.556 220.382 125C211.156 129.444 190.165 150.544 167.8 178.5C144.804 207.245 127.608 234.174 124.731 245.168C121.48 233.874 104.454 207.318 81.8 179Z" fill="#FF2C2C"/>
<path d="M124.992 249.951C124.988 249.959 124.984 249.967 124.98 249.975L125 250L125.02 249.975C125.011 249.967 125.002 249.959 124.992 249.951Z" fill="#FF2C2C"/>
<path d="M224.98 125.025L225 125L224.98 124.975C224.976 124.983 224.971 124.992 224.966 125C224.971 125.008 224.976 125.017 224.98 125.025Z" fill="#FF2C2C"/>
<path d="M125.02 0.0250244C125.011 0.0327759 125.002 0.0406342 124.992 0.0486145L124.98 0.0250244L125 0L125.02 0.0250244Z" fill="#FF2C2C"/>
</svg>
